# xmcd
#
# Track frame offsets: 
#        150
#        81926
#        119241
#        149561
#        167540
#        196213
#
# Disc length: 3868 seconds
#
# Revision: 0
# Processed by: cddbd v1.5.2PL0 Copyright (c) Steve Scherf et al.
# Submitted via: ExactAudioCopy v0.95a5
#
DISCID=550f1a06
DTITLE=李心草 - 金色庆典
DYEAR=2006
DGENRE=Folk
TTITLE0=霸王别姬
TTITLE1=兰花花
TTITLE2=对花
TTITLE3=紫竹调
TTITLE4=二泉映月
TTITLE5=穆桂英挂帅
EXTD=
EXTT0=
EXTT1=
EXTT2=
EXTT3=
EXTT4=
EXTT5=
PLAYORDER=
